<mxfile host="Electron" modified="2024-09-27T17:53:42.865Z" agent="Mozilla/5.0 (Windows NT 10.0; Win64; x64) AppleWebKit/537.36 (KHTML, like Gecko) draw.io/22.1.2 Chrome/114.0.5735.289 Electron/25.9.4 Safari/537.36" etag="nwitx6l1Xv4PVTnjNfrk" version="22.1.2" type="device">
  <diagram name="Page-1" id="H2MZtMzQKbWlYWSilOhx">
    <mxGraphModel dx="1434" dy="884" grid="1" gridSize="10" guides="1" tooltips="1" connect="1" arrows="1" fold="1" page="1" pageScale="1" pageWidth="1920" pageHeight="1200" math="0" shadow="0">
      <root>
        <mxCell id="0" />
        <mxCell id="1" parent="0" />
        <mxCell id="ulSrFT3dV1VT24N06wxW-1" value="&lt;h1&gt;Basic Relational Database&lt;/h1&gt;&lt;p&gt;Problem: we need to be able to reference multiple tilesets. Perhaps one for ASCII graphics, one for sprite-graphics, and an infinite number for mods.&lt;/p&gt;&lt;p&gt;&lt;br&gt;&lt;/p&gt;&lt;p&gt;&lt;br&gt;&lt;/p&gt;" style="text;html=1;strokeColor=none;fillColor=none;spacing=5;spacingTop=-20;whiteSpace=wrap;overflow=hidden;rounded=0;" vertex="1" parent="1">
          <mxGeometry x="130" y="20" width="350" height="120" as="geometry" />
        </mxCell>
        <mxCell id="ulSrFT3dV1VT24N06wxW-2" value="Tileset DB" style="shape=table;startSize=30;container=1;collapsible=0;childLayout=tableLayout;strokeColor=default;fontSize=16;" vertex="1" parent="1">
          <mxGeometry x="700" y="190" width="230" height="190" as="geometry" />
        </mxCell>
        <mxCell id="ulSrFT3dV1VT24N06wxW-3" value="" style="shape=tableRow;horizontal=0;startSize=0;swimlaneHead=0;swimlaneBody=0;strokeColor=inherit;top=0;left=0;bottom=0;right=0;collapsible=0;dropTarget=0;fillColor=none;points=[[0,0.5],[1,0.5]];portConstraint=eastwest;fontSize=16;" vertex="1" parent="ulSrFT3dV1VT24N06wxW-2">
          <mxGeometry y="30" width="230" height="40" as="geometry" />
        </mxCell>
        <mxCell id="ulSrFT3dV1VT24N06wxW-4" value="tileID" style="shape=partialRectangle;html=1;whiteSpace=wrap;connectable=0;strokeColor=inherit;overflow=hidden;fillColor=none;top=0;left=0;bottom=0;right=0;pointerEvents=1;fontSize=16;" vertex="1" parent="ulSrFT3dV1VT24N06wxW-3">
          <mxGeometry width="74" height="40" as="geometry">
            <mxRectangle width="74" height="40" as="alternateBounds" />
          </mxGeometry>
        </mxCell>
        <mxCell id="ulSrFT3dV1VT24N06wxW-5" value="Tile Pointer" style="shape=partialRectangle;html=1;whiteSpace=wrap;connectable=0;strokeColor=inherit;overflow=hidden;fillColor=none;top=0;left=0;bottom=0;right=0;pointerEvents=1;fontSize=16;" vertex="1" parent="ulSrFT3dV1VT24N06wxW-3">
          <mxGeometry x="74" width="156" height="40" as="geometry">
            <mxRectangle width="156" height="40" as="alternateBounds" />
          </mxGeometry>
        </mxCell>
        <mxCell id="ulSrFT3dV1VT24N06wxW-7" value="" style="shape=tableRow;horizontal=0;startSize=0;swimlaneHead=0;swimlaneBody=0;strokeColor=inherit;top=0;left=0;bottom=0;right=0;collapsible=0;dropTarget=0;fillColor=none;points=[[0,0.5],[1,0.5]];portConstraint=eastwest;fontSize=16;" vertex="1" parent="ulSrFT3dV1VT24N06wxW-2">
          <mxGeometry y="70" width="230" height="40" as="geometry" />
        </mxCell>
        <mxCell id="ulSrFT3dV1VT24N06wxW-8" value="0" style="shape=partialRectangle;html=1;whiteSpace=wrap;connectable=0;strokeColor=inherit;overflow=hidden;fillColor=none;top=0;left=0;bottom=0;right=0;pointerEvents=1;fontSize=16;" vertex="1" parent="ulSrFT3dV1VT24N06wxW-7">
          <mxGeometry width="74" height="40" as="geometry">
            <mxRectangle width="74" height="40" as="alternateBounds" />
          </mxGeometry>
        </mxCell>
        <mxCell id="ulSrFT3dV1VT24N06wxW-9" value="..." style="shape=partialRectangle;html=1;whiteSpace=wrap;connectable=0;strokeColor=inherit;overflow=hidden;fillColor=none;top=0;left=0;bottom=0;right=0;pointerEvents=1;fontSize=16;" vertex="1" parent="ulSrFT3dV1VT24N06wxW-7">
          <mxGeometry x="74" width="156" height="40" as="geometry">
            <mxRectangle width="156" height="40" as="alternateBounds" />
          </mxGeometry>
        </mxCell>
        <mxCell id="ulSrFT3dV1VT24N06wxW-11" value="" style="shape=tableRow;horizontal=0;startSize=0;swimlaneHead=0;swimlaneBody=0;strokeColor=inherit;top=0;left=0;bottom=0;right=0;collapsible=0;dropTarget=0;fillColor=none;points=[[0,0.5],[1,0.5]];portConstraint=eastwest;fontSize=16;" vertex="1" parent="ulSrFT3dV1VT24N06wxW-2">
          <mxGeometry y="110" width="230" height="40" as="geometry" />
        </mxCell>
        <mxCell id="ulSrFT3dV1VT24N06wxW-12" value="1" style="shape=partialRectangle;html=1;whiteSpace=wrap;connectable=0;strokeColor=inherit;overflow=hidden;fillColor=none;top=0;left=0;bottom=0;right=0;pointerEvents=1;fontSize=16;" vertex="1" parent="ulSrFT3dV1VT24N06wxW-11">
          <mxGeometry width="74" height="40" as="geometry">
            <mxRectangle width="74" height="40" as="alternateBounds" />
          </mxGeometry>
        </mxCell>
        <mxCell id="ulSrFT3dV1VT24N06wxW-13" value="..." style="shape=partialRectangle;html=1;whiteSpace=wrap;connectable=0;strokeColor=inherit;overflow=hidden;fillColor=none;top=0;left=0;bottom=0;right=0;pointerEvents=1;fontSize=16;" vertex="1" parent="ulSrFT3dV1VT24N06wxW-11">
          <mxGeometry x="74" width="156" height="40" as="geometry">
            <mxRectangle width="156" height="40" as="alternateBounds" />
          </mxGeometry>
        </mxCell>
        <mxCell id="ulSrFT3dV1VT24N06wxW-25" style="shape=tableRow;horizontal=0;startSize=0;swimlaneHead=0;swimlaneBody=0;strokeColor=inherit;top=0;left=0;bottom=0;right=0;collapsible=0;dropTarget=0;fillColor=none;points=[[0,0.5],[1,0.5]];portConstraint=eastwest;fontSize=16;" vertex="1" parent="ulSrFT3dV1VT24N06wxW-2">
          <mxGeometry y="150" width="230" height="40" as="geometry" />
        </mxCell>
        <mxCell id="ulSrFT3dV1VT24N06wxW-26" value="n" style="shape=partialRectangle;html=1;whiteSpace=wrap;connectable=0;strokeColor=inherit;overflow=hidden;fillColor=none;top=0;left=0;bottom=0;right=0;pointerEvents=1;fontSize=16;" vertex="1" parent="ulSrFT3dV1VT24N06wxW-25">
          <mxGeometry width="74" height="40" as="geometry">
            <mxRectangle width="74" height="40" as="alternateBounds" />
          </mxGeometry>
        </mxCell>
        <mxCell id="ulSrFT3dV1VT24N06wxW-27" value="...." style="shape=partialRectangle;html=1;whiteSpace=wrap;connectable=0;strokeColor=inherit;overflow=hidden;fillColor=none;top=0;left=0;bottom=0;right=0;pointerEvents=1;fontSize=16;" vertex="1" parent="ulSrFT3dV1VT24N06wxW-25">
          <mxGeometry x="74" width="156" height="40" as="geometry">
            <mxRectangle width="156" height="40" as="alternateBounds" />
          </mxGeometry>
        </mxCell>
        <mxCell id="ulSrFT3dV1VT24N06wxW-28" value="Creature DB" style="shape=table;startSize=30;container=1;collapsible=0;childLayout=tableLayout;strokeColor=default;fontSize=16;" vertex="1" parent="1">
          <mxGeometry x="100" y="190" width="386" height="190" as="geometry" />
        </mxCell>
        <mxCell id="ulSrFT3dV1VT24N06wxW-29" value="" style="shape=tableRow;horizontal=0;startSize=0;swimlaneHead=0;swimlaneBody=0;strokeColor=inherit;top=0;left=0;bottom=0;right=0;collapsible=0;dropTarget=0;fillColor=none;points=[[0,0.5],[1,0.5]];portConstraint=eastwest;fontSize=16;" vertex="1" parent="ulSrFT3dV1VT24N06wxW-28">
          <mxGeometry y="30" width="386" height="40" as="geometry" />
        </mxCell>
        <mxCell id="ulSrFT3dV1VT24N06wxW-30" value="creatID" style="shape=partialRectangle;html=1;whiteSpace=wrap;connectable=0;strokeColor=inherit;overflow=hidden;fillColor=none;top=0;left=0;bottom=0;right=0;pointerEvents=1;fontSize=16;" vertex="1" parent="ulSrFT3dV1VT24N06wxW-29">
          <mxGeometry width="74" height="40" as="geometry">
            <mxRectangle width="74" height="40" as="alternateBounds" />
          </mxGeometry>
        </mxCell>
        <mxCell id="ulSrFT3dV1VT24N06wxW-31" value="type..." style="shape=partialRectangle;html=1;whiteSpace=wrap;connectable=0;strokeColor=inherit;overflow=hidden;fillColor=none;top=0;left=0;bottom=0;right=0;pointerEvents=1;fontSize=16;" vertex="1" parent="ulSrFT3dV1VT24N06wxW-29">
          <mxGeometry x="74" width="156" height="40" as="geometry">
            <mxRectangle width="156" height="40" as="alternateBounds" />
          </mxGeometry>
        </mxCell>
        <mxCell id="ulSrFT3dV1VT24N06wxW-41" value="tileID" style="shape=partialRectangle;html=1;whiteSpace=wrap;connectable=0;strokeColor=inherit;overflow=hidden;fillColor=none;top=0;left=0;bottom=0;right=0;pointerEvents=1;fontSize=16;" vertex="1" parent="ulSrFT3dV1VT24N06wxW-29">
          <mxGeometry x="230" width="156" height="40" as="geometry">
            <mxRectangle width="156" height="40" as="alternateBounds" />
          </mxGeometry>
        </mxCell>
        <mxCell id="ulSrFT3dV1VT24N06wxW-32" value="" style="shape=tableRow;horizontal=0;startSize=0;swimlaneHead=0;swimlaneBody=0;strokeColor=inherit;top=0;left=0;bottom=0;right=0;collapsible=0;dropTarget=0;fillColor=none;points=[[0,0.5],[1,0.5]];portConstraint=eastwest;fontSize=16;" vertex="1" parent="ulSrFT3dV1VT24N06wxW-28">
          <mxGeometry y="70" width="386" height="40" as="geometry" />
        </mxCell>
        <mxCell id="ulSrFT3dV1VT24N06wxW-33" value="0" style="shape=partialRectangle;html=1;whiteSpace=wrap;connectable=0;strokeColor=inherit;overflow=hidden;fillColor=none;top=0;left=0;bottom=0;right=0;pointerEvents=1;fontSize=16;" vertex="1" parent="ulSrFT3dV1VT24N06wxW-32">
          <mxGeometry width="74" height="40" as="geometry">
            <mxRectangle width="74" height="40" as="alternateBounds" />
          </mxGeometry>
        </mxCell>
        <mxCell id="ulSrFT3dV1VT24N06wxW-34" value="..." style="shape=partialRectangle;html=1;whiteSpace=wrap;connectable=0;strokeColor=inherit;overflow=hidden;fillColor=none;top=0;left=0;bottom=0;right=0;pointerEvents=1;fontSize=16;" vertex="1" parent="ulSrFT3dV1VT24N06wxW-32">
          <mxGeometry x="74" width="156" height="40" as="geometry">
            <mxRectangle width="156" height="40" as="alternateBounds" />
          </mxGeometry>
        </mxCell>
        <mxCell id="ulSrFT3dV1VT24N06wxW-42" value="1" style="shape=partialRectangle;html=1;whiteSpace=wrap;connectable=0;strokeColor=inherit;overflow=hidden;fillColor=none;top=0;left=0;bottom=0;right=0;pointerEvents=1;fontSize=16;" vertex="1" parent="ulSrFT3dV1VT24N06wxW-32">
          <mxGeometry x="230" width="156" height="40" as="geometry">
            <mxRectangle width="156" height="40" as="alternateBounds" />
          </mxGeometry>
        </mxCell>
        <mxCell id="ulSrFT3dV1VT24N06wxW-35" value="" style="shape=tableRow;horizontal=0;startSize=0;swimlaneHead=0;swimlaneBody=0;strokeColor=inherit;top=0;left=0;bottom=0;right=0;collapsible=0;dropTarget=0;fillColor=none;points=[[0,0.5],[1,0.5]];portConstraint=eastwest;fontSize=16;" vertex="1" parent="ulSrFT3dV1VT24N06wxW-28">
          <mxGeometry y="110" width="386" height="40" as="geometry" />
        </mxCell>
        <mxCell id="ulSrFT3dV1VT24N06wxW-36" value="1" style="shape=partialRectangle;html=1;whiteSpace=wrap;connectable=0;strokeColor=inherit;overflow=hidden;fillColor=none;top=0;left=0;bottom=0;right=0;pointerEvents=1;fontSize=16;" vertex="1" parent="ulSrFT3dV1VT24N06wxW-35">
          <mxGeometry width="74" height="40" as="geometry">
            <mxRectangle width="74" height="40" as="alternateBounds" />
          </mxGeometry>
        </mxCell>
        <mxCell id="ulSrFT3dV1VT24N06wxW-37" value="..." style="shape=partialRectangle;html=1;whiteSpace=wrap;connectable=0;strokeColor=inherit;overflow=hidden;fillColor=none;top=0;left=0;bottom=0;right=0;pointerEvents=1;fontSize=16;" vertex="1" parent="ulSrFT3dV1VT24N06wxW-35">
          <mxGeometry x="74" width="156" height="40" as="geometry">
            <mxRectangle width="156" height="40" as="alternateBounds" />
          </mxGeometry>
        </mxCell>
        <mxCell id="ulSrFT3dV1VT24N06wxW-43" value="3" style="shape=partialRectangle;html=1;whiteSpace=wrap;connectable=0;strokeColor=inherit;overflow=hidden;fillColor=none;top=0;left=0;bottom=0;right=0;pointerEvents=1;fontSize=16;" vertex="1" parent="ulSrFT3dV1VT24N06wxW-35">
          <mxGeometry x="230" width="156" height="40" as="geometry">
            <mxRectangle width="156" height="40" as="alternateBounds" />
          </mxGeometry>
        </mxCell>
        <mxCell id="ulSrFT3dV1VT24N06wxW-38" style="shape=tableRow;horizontal=0;startSize=0;swimlaneHead=0;swimlaneBody=0;strokeColor=inherit;top=0;left=0;bottom=0;right=0;collapsible=0;dropTarget=0;fillColor=none;points=[[0,0.5],[1,0.5]];portConstraint=eastwest;fontSize=16;" vertex="1" parent="ulSrFT3dV1VT24N06wxW-28">
          <mxGeometry y="150" width="386" height="40" as="geometry" />
        </mxCell>
        <mxCell id="ulSrFT3dV1VT24N06wxW-39" value="n" style="shape=partialRectangle;html=1;whiteSpace=wrap;connectable=0;strokeColor=inherit;overflow=hidden;fillColor=none;top=0;left=0;bottom=0;right=0;pointerEvents=1;fontSize=16;" vertex="1" parent="ulSrFT3dV1VT24N06wxW-38">
          <mxGeometry width="74" height="40" as="geometry">
            <mxRectangle width="74" height="40" as="alternateBounds" />
          </mxGeometry>
        </mxCell>
        <mxCell id="ulSrFT3dV1VT24N06wxW-40" value="...." style="shape=partialRectangle;html=1;whiteSpace=wrap;connectable=0;strokeColor=inherit;overflow=hidden;fillColor=none;top=0;left=0;bottom=0;right=0;pointerEvents=1;fontSize=16;" vertex="1" parent="ulSrFT3dV1VT24N06wxW-38">
          <mxGeometry x="74" width="156" height="40" as="geometry">
            <mxRectangle width="156" height="40" as="alternateBounds" />
          </mxGeometry>
        </mxCell>
        <mxCell id="ulSrFT3dV1VT24N06wxW-44" value="n" style="shape=partialRectangle;html=1;whiteSpace=wrap;connectable=0;strokeColor=inherit;overflow=hidden;fillColor=none;top=0;left=0;bottom=0;right=0;pointerEvents=1;fontSize=16;" vertex="1" parent="ulSrFT3dV1VT24N06wxW-38">
          <mxGeometry x="230" width="156" height="40" as="geometry">
            <mxRectangle width="156" height="40" as="alternateBounds" />
          </mxGeometry>
        </mxCell>
        <mxCell id="ulSrFT3dV1VT24N06wxW-45" style="edgeStyle=orthogonalEdgeStyle;rounded=0;orthogonalLoop=1;jettySize=auto;html=1;" edge="1" parent="1" source="ulSrFT3dV1VT24N06wxW-32" target="ulSrFT3dV1VT24N06wxW-7">
          <mxGeometry relative="1" as="geometry" />
        </mxCell>
        <mxCell id="ulSrFT3dV1VT24N06wxW-46" value="Material DB" style="shape=table;startSize=30;container=1;collapsible=0;childLayout=tableLayout;strokeColor=default;fontSize=16;" vertex="1" parent="1">
          <mxGeometry x="130" y="490" width="386" height="190" as="geometry" />
        </mxCell>
        <mxCell id="ulSrFT3dV1VT24N06wxW-47" value="" style="shape=tableRow;horizontal=0;startSize=0;swimlaneHead=0;swimlaneBody=0;strokeColor=inherit;top=0;left=0;bottom=0;right=0;collapsible=0;dropTarget=0;fillColor=none;points=[[0,0.5],[1,0.5]];portConstraint=eastwest;fontSize=16;" vertex="1" parent="ulSrFT3dV1VT24N06wxW-46">
          <mxGeometry y="30" width="386" height="40" as="geometry" />
        </mxCell>
        <mxCell id="ulSrFT3dV1VT24N06wxW-48" value="matID" style="shape=partialRectangle;html=1;whiteSpace=wrap;connectable=0;strokeColor=inherit;overflow=hidden;fillColor=none;top=0;left=0;bottom=0;right=0;pointerEvents=1;fontSize=16;" vertex="1" parent="ulSrFT3dV1VT24N06wxW-47">
          <mxGeometry width="74" height="40" as="geometry">
            <mxRectangle width="74" height="40" as="alternateBounds" />
          </mxGeometry>
        </mxCell>
        <mxCell id="ulSrFT3dV1VT24N06wxW-49" value="hardness" style="shape=partialRectangle;html=1;whiteSpace=wrap;connectable=0;strokeColor=inherit;overflow=hidden;fillColor=none;top=0;left=0;bottom=0;right=0;pointerEvents=1;fontSize=16;" vertex="1" parent="ulSrFT3dV1VT24N06wxW-47">
          <mxGeometry x="74" width="156" height="40" as="geometry">
            <mxRectangle width="156" height="40" as="alternateBounds" />
          </mxGeometry>
        </mxCell>
        <mxCell id="ulSrFT3dV1VT24N06wxW-50" value="tileID" style="shape=partialRectangle;html=1;whiteSpace=wrap;connectable=0;strokeColor=inherit;overflow=hidden;fillColor=none;top=0;left=0;bottom=0;right=0;pointerEvents=1;fontSize=16;" vertex="1" parent="ulSrFT3dV1VT24N06wxW-47">
          <mxGeometry x="230" width="156" height="40" as="geometry">
            <mxRectangle width="156" height="40" as="alternateBounds" />
          </mxGeometry>
        </mxCell>
        <mxCell id="ulSrFT3dV1VT24N06wxW-51" value="" style="shape=tableRow;horizontal=0;startSize=0;swimlaneHead=0;swimlaneBody=0;strokeColor=inherit;top=0;left=0;bottom=0;right=0;collapsible=0;dropTarget=0;fillColor=none;points=[[0,0.5],[1,0.5]];portConstraint=eastwest;fontSize=16;" vertex="1" parent="ulSrFT3dV1VT24N06wxW-46">
          <mxGeometry y="70" width="386" height="40" as="geometry" />
        </mxCell>
        <mxCell id="ulSrFT3dV1VT24N06wxW-52" value="0" style="shape=partialRectangle;html=1;whiteSpace=wrap;connectable=0;strokeColor=inherit;overflow=hidden;fillColor=none;top=0;left=0;bottom=0;right=0;pointerEvents=1;fontSize=16;" vertex="1" parent="ulSrFT3dV1VT24N06wxW-51">
          <mxGeometry width="74" height="40" as="geometry">
            <mxRectangle width="74" height="40" as="alternateBounds" />
          </mxGeometry>
        </mxCell>
        <mxCell id="ulSrFT3dV1VT24N06wxW-53" value="..." style="shape=partialRectangle;html=1;whiteSpace=wrap;connectable=0;strokeColor=inherit;overflow=hidden;fillColor=none;top=0;left=0;bottom=0;right=0;pointerEvents=1;fontSize=16;" vertex="1" parent="ulSrFT3dV1VT24N06wxW-51">
          <mxGeometry x="74" width="156" height="40" as="geometry">
            <mxRectangle width="156" height="40" as="alternateBounds" />
          </mxGeometry>
        </mxCell>
        <mxCell id="ulSrFT3dV1VT24N06wxW-54" value="1" style="shape=partialRectangle;html=1;whiteSpace=wrap;connectable=0;strokeColor=inherit;overflow=hidden;fillColor=none;top=0;left=0;bottom=0;right=0;pointerEvents=1;fontSize=16;" vertex="1" parent="ulSrFT3dV1VT24N06wxW-51">
          <mxGeometry x="230" width="156" height="40" as="geometry">
            <mxRectangle width="156" height="40" as="alternateBounds" />
          </mxGeometry>
        </mxCell>
        <mxCell id="ulSrFT3dV1VT24N06wxW-55" value="" style="shape=tableRow;horizontal=0;startSize=0;swimlaneHead=0;swimlaneBody=0;strokeColor=inherit;top=0;left=0;bottom=0;right=0;collapsible=0;dropTarget=0;fillColor=none;points=[[0,0.5],[1,0.5]];portConstraint=eastwest;fontSize=16;" vertex="1" parent="ulSrFT3dV1VT24N06wxW-46">
          <mxGeometry y="110" width="386" height="40" as="geometry" />
        </mxCell>
        <mxCell id="ulSrFT3dV1VT24N06wxW-56" value="1" style="shape=partialRectangle;html=1;whiteSpace=wrap;connectable=0;strokeColor=inherit;overflow=hidden;fillColor=none;top=0;left=0;bottom=0;right=0;pointerEvents=1;fontSize=16;" vertex="1" parent="ulSrFT3dV1VT24N06wxW-55">
          <mxGeometry width="74" height="40" as="geometry">
            <mxRectangle width="74" height="40" as="alternateBounds" />
          </mxGeometry>
        </mxCell>
        <mxCell id="ulSrFT3dV1VT24N06wxW-57" value="..." style="shape=partialRectangle;html=1;whiteSpace=wrap;connectable=0;strokeColor=inherit;overflow=hidden;fillColor=none;top=0;left=0;bottom=0;right=0;pointerEvents=1;fontSize=16;" vertex="1" parent="ulSrFT3dV1VT24N06wxW-55">
          <mxGeometry x="74" width="156" height="40" as="geometry">
            <mxRectangle width="156" height="40" as="alternateBounds" />
          </mxGeometry>
        </mxCell>
        <mxCell id="ulSrFT3dV1VT24N06wxW-58" value="3" style="shape=partialRectangle;html=1;whiteSpace=wrap;connectable=0;strokeColor=inherit;overflow=hidden;fillColor=none;top=0;left=0;bottom=0;right=0;pointerEvents=1;fontSize=16;" vertex="1" parent="ulSrFT3dV1VT24N06wxW-55">
          <mxGeometry x="230" width="156" height="40" as="geometry">
            <mxRectangle width="156" height="40" as="alternateBounds" />
          </mxGeometry>
        </mxCell>
        <mxCell id="ulSrFT3dV1VT24N06wxW-59" style="shape=tableRow;horizontal=0;startSize=0;swimlaneHead=0;swimlaneBody=0;strokeColor=inherit;top=0;left=0;bottom=0;right=0;collapsible=0;dropTarget=0;fillColor=none;points=[[0,0.5],[1,0.5]];portConstraint=eastwest;fontSize=16;" vertex="1" parent="ulSrFT3dV1VT24N06wxW-46">
          <mxGeometry y="150" width="386" height="40" as="geometry" />
        </mxCell>
        <mxCell id="ulSrFT3dV1VT24N06wxW-60" value="n" style="shape=partialRectangle;html=1;whiteSpace=wrap;connectable=0;strokeColor=inherit;overflow=hidden;fillColor=none;top=0;left=0;bottom=0;right=0;pointerEvents=1;fontSize=16;" vertex="1" parent="ulSrFT3dV1VT24N06wxW-59">
          <mxGeometry width="74" height="40" as="geometry">
            <mxRectangle width="74" height="40" as="alternateBounds" />
          </mxGeometry>
        </mxCell>
        <mxCell id="ulSrFT3dV1VT24N06wxW-61" value="...." style="shape=partialRectangle;html=1;whiteSpace=wrap;connectable=0;strokeColor=inherit;overflow=hidden;fillColor=none;top=0;left=0;bottom=0;right=0;pointerEvents=1;fontSize=16;" vertex="1" parent="ulSrFT3dV1VT24N06wxW-59">
          <mxGeometry x="74" width="156" height="40" as="geometry">
            <mxRectangle width="156" height="40" as="alternateBounds" />
          </mxGeometry>
        </mxCell>
        <mxCell id="ulSrFT3dV1VT24N06wxW-62" value="n" style="shape=partialRectangle;html=1;whiteSpace=wrap;connectable=0;strokeColor=inherit;overflow=hidden;fillColor=none;top=0;left=0;bottom=0;right=0;pointerEvents=1;fontSize=16;" vertex="1" parent="ulSrFT3dV1VT24N06wxW-59">
          <mxGeometry x="230" width="156" height="40" as="geometry">
            <mxRectangle width="156" height="40" as="alternateBounds" />
          </mxGeometry>
        </mxCell>
        <mxCell id="ulSrFT3dV1VT24N06wxW-63" style="edgeStyle=orthogonalEdgeStyle;rounded=0;orthogonalLoop=1;jettySize=auto;html=1;entryX=0.561;entryY=1;entryDx=0;entryDy=0;entryPerimeter=0;" edge="1" parent="1" source="ulSrFT3dV1VT24N06wxW-46" target="ulSrFT3dV1VT24N06wxW-25">
          <mxGeometry relative="1" as="geometry" />
        </mxCell>
      </root>
    </mxGraphModel>
  </diagram>
</mxfile>
